<mxfile host="app.diagrams.net" modified="2024-05-27T15:00:09.713Z" agent="Mozilla/5.0 (Windows NT 10.0; Win64; x64; rv:126.0) Gecko/20100101 Firefox/126.0" etag="89GUiISw7fjvZO39eBRy" version="24.4.9" type="github">
  <diagram name="Page-1" id="9p3UUd6QseOlP8Mw4b81">
    <mxGraphModel dx="989" dy="539" grid="1" gridSize="10" guides="1" tooltips="1" connect="1" arrows="1" fold="1" page="1" pageScale="1" pageWidth="850" pageHeight="1100" math="0" shadow="0">
      <root>
        <mxCell id="0" />
        <mxCell id="1" parent="0" />
        <mxCell id="tq2gl1iUYop8LYEsl_of-6" value="" style="endArrow=classic;html=1;rounded=0;entryX=0.5;entryY=1;entryDx=0;entryDy=0;fontColor=#EA6B66;strokeColor=#EA6B66;" edge="1" parent="1" target="vp9ZlPD4P-IvnhQoKdE9-91">
          <mxGeometry width="50" height="50" relative="1" as="geometry">
            <mxPoint x="270" y="420" as="sourcePoint" />
            <mxPoint x="420" y="330" as="targetPoint" />
            <Array as="points">
              <mxPoint x="330" y="420" />
            </Array>
          </mxGeometry>
        </mxCell>
        <mxCell id="tq2gl1iUYop8LYEsl_of-9" value="0.99" style="edgeLabel;html=1;align=center;verticalAlign=middle;resizable=0;points=[];fontColor=#EA6B66;fontSize=16;" vertex="1" connectable="0" parent="tq2gl1iUYop8LYEsl_of-6">
          <mxGeometry x="0.6019" y="-1" relative="1" as="geometry">
            <mxPoint as="offset" />
          </mxGeometry>
        </mxCell>
        <mxCell id="vp9ZlPD4P-IvnhQoKdE9-3" value="" style="ellipse;whiteSpace=wrap;html=1;aspect=fixed;strokeColor=#EA6B66;" parent="1" vertex="1">
          <mxGeometry x="160" y="229" width="20" height="20" as="geometry" />
        </mxCell>
        <mxCell id="vp9ZlPD4P-IvnhQoKdE9-4" value="" style="endArrow=none;html=1;rounded=0;" parent="1" source="vp9ZlPD4P-IvnhQoKdE9-7" target="vp9ZlPD4P-IvnhQoKdE9-3" edge="1">
          <mxGeometry width="50" height="50" relative="1" as="geometry">
            <mxPoint x="137" y="282" as="sourcePoint" />
            <mxPoint x="320" y="279" as="targetPoint" />
          </mxGeometry>
        </mxCell>
        <mxCell id="vp9ZlPD4P-IvnhQoKdE9-5" value="" style="endArrow=none;html=1;rounded=0;" parent="1" source="vp9ZlPD4P-IvnhQoKdE9-8" target="vp9ZlPD4P-IvnhQoKdE9-3" edge="1">
          <mxGeometry width="50" height="50" relative="1" as="geometry">
            <mxPoint x="230" y="319" as="sourcePoint" />
            <mxPoint x="240" y="229" as="targetPoint" />
          </mxGeometry>
        </mxCell>
        <mxCell id="vp9ZlPD4P-IvnhQoKdE9-7" value="" style="ellipse;whiteSpace=wrap;html=1;aspect=fixed;" parent="1" vertex="1">
          <mxGeometry x="130" y="269" width="20" height="20" as="geometry" />
        </mxCell>
        <mxCell id="vp9ZlPD4P-IvnhQoKdE9-8" value="" style="ellipse;whiteSpace=wrap;html=1;aspect=fixed;" parent="1" vertex="1">
          <mxGeometry x="190" y="269" width="20" height="20" as="geometry" />
        </mxCell>
        <mxCell id="vp9ZlPD4P-IvnhQoKdE9-18" value="" style="endArrow=none;html=1;rounded=0;strokeColor=#EA6B66;strokeWidth=1;startArrow=classic;startFill=1;" parent="1" source="vp9ZlPD4P-IvnhQoKdE9-19" target="vp9ZlPD4P-IvnhQoKdE9-3" edge="1">
          <mxGeometry width="50" height="50" relative="1" as="geometry">
            <mxPoint x="170" y="289" as="sourcePoint" />
            <mxPoint x="300" y="279" as="targetPoint" />
          </mxGeometry>
        </mxCell>
        <mxCell id="vp9ZlPD4P-IvnhQoKdE9-19" value="" style="ellipse;whiteSpace=wrap;html=1;aspect=fixed;strokeColor=#EA6B66;" parent="1" vertex="1">
          <mxGeometry x="160" y="269" width="20" height="20" as="geometry" />
        </mxCell>
        <mxCell id="vp9ZlPD4P-IvnhQoKdE9-32" value="" style="endArrow=none;html=1;rounded=0;" parent="1" source="vp9ZlPD4P-IvnhQoKdE9-34" target="vp9ZlPD4P-IvnhQoKdE9-7" edge="1">
          <mxGeometry width="50" height="50" relative="1" as="geometry">
            <mxPoint x="97" y="334" as="sourcePoint" />
            <mxPoint x="124" y="299" as="targetPoint" />
          </mxGeometry>
        </mxCell>
        <mxCell id="vp9ZlPD4P-IvnhQoKdE9-34" value="" style="ellipse;whiteSpace=wrap;html=1;aspect=fixed;" parent="1" vertex="1">
          <mxGeometry x="90" y="311" width="20" height="20" as="geometry" />
        </mxCell>
        <mxCell id="vp9ZlPD4P-IvnhQoKdE9-36" value="" style="endArrow=none;html=1;rounded=0;" parent="1" source="vp9ZlPD4P-IvnhQoKdE9-37" target="vp9ZlPD4P-IvnhQoKdE9-7" edge="1">
          <mxGeometry width="50" height="50" relative="1" as="geometry">
            <mxPoint x="130" y="341" as="sourcePoint" />
            <mxPoint x="180" y="339" as="targetPoint" />
          </mxGeometry>
        </mxCell>
        <mxCell id="vp9ZlPD4P-IvnhQoKdE9-37" value="" style="ellipse;whiteSpace=wrap;html=1;aspect=fixed;" parent="1" vertex="1">
          <mxGeometry x="130" y="311" width="20" height="20" as="geometry" />
        </mxCell>
        <mxCell id="vp9ZlPD4P-IvnhQoKdE9-39" value="" style="endArrow=none;html=1;rounded=0;strokeColor=#EA6B66;strokeWidth=1;startArrow=classic;startFill=1;" parent="1" source="vp9ZlPD4P-IvnhQoKdE9-40" target="vp9ZlPD4P-IvnhQoKdE9-19" edge="1">
          <mxGeometry width="50" height="50" relative="1" as="geometry">
            <mxPoint x="170" y="341" as="sourcePoint" />
            <mxPoint x="140" y="309" as="targetPoint" />
          </mxGeometry>
        </mxCell>
        <mxCell id="vp9ZlPD4P-IvnhQoKdE9-40" value="" style="ellipse;whiteSpace=wrap;html=1;aspect=fixed;strokeColor=#EA6B66;" parent="1" vertex="1">
          <mxGeometry x="160" y="311" width="20" height="20" as="geometry" />
        </mxCell>
        <mxCell id="vp9ZlPD4P-IvnhQoKdE9-74" value="" style="ellipse;whiteSpace=wrap;html=1;aspect=fixed;strokeColor=#071421;" parent="1" vertex="1">
          <mxGeometry x="290" y="230" width="20" height="20" as="geometry" />
        </mxCell>
        <mxCell id="vp9ZlPD4P-IvnhQoKdE9-75" value="" style="endArrow=none;html=1;rounded=0;" parent="1" source="vp9ZlPD4P-IvnhQoKdE9-77" target="vp9ZlPD4P-IvnhQoKdE9-74" edge="1">
          <mxGeometry width="50" height="50" relative="1" as="geometry">
            <mxPoint x="267" y="283" as="sourcePoint" />
            <mxPoint x="450" y="280" as="targetPoint" />
          </mxGeometry>
        </mxCell>
        <mxCell id="vp9ZlPD4P-IvnhQoKdE9-76" value="" style="endArrow=none;html=1;rounded=0;" parent="1" source="vp9ZlPD4P-IvnhQoKdE9-78" target="vp9ZlPD4P-IvnhQoKdE9-74" edge="1">
          <mxGeometry width="50" height="50" relative="1" as="geometry">
            <mxPoint x="360" y="320" as="sourcePoint" />
            <mxPoint x="370" y="230" as="targetPoint" />
          </mxGeometry>
        </mxCell>
        <mxCell id="vp9ZlPD4P-IvnhQoKdE9-77" value="" style="ellipse;whiteSpace=wrap;html=1;aspect=fixed;" parent="1" vertex="1">
          <mxGeometry x="260" y="270" width="20" height="20" as="geometry" />
        </mxCell>
        <mxCell id="vp9ZlPD4P-IvnhQoKdE9-78" value="" style="ellipse;whiteSpace=wrap;html=1;aspect=fixed;" parent="1" vertex="1">
          <mxGeometry x="320" y="270" width="20" height="20" as="geometry" />
        </mxCell>
        <mxCell id="vp9ZlPD4P-IvnhQoKdE9-79" value="" style="endArrow=none;html=1;rounded=0;strokeColor=#071421;" parent="1" source="vp9ZlPD4P-IvnhQoKdE9-80" target="vp9ZlPD4P-IvnhQoKdE9-74" edge="1">
          <mxGeometry width="50" height="50" relative="1" as="geometry">
            <mxPoint x="300" y="290" as="sourcePoint" />
            <mxPoint x="430" y="280" as="targetPoint" />
          </mxGeometry>
        </mxCell>
        <mxCell id="vp9ZlPD4P-IvnhQoKdE9-80" value="" style="ellipse;whiteSpace=wrap;html=1;aspect=fixed;strokeColor=#071421;" parent="1" vertex="1">
          <mxGeometry x="290" y="270" width="20" height="20" as="geometry" />
        </mxCell>
        <mxCell id="vp9ZlPD4P-IvnhQoKdE9-81" value="" style="endArrow=none;html=1;rounded=0;" parent="1" source="vp9ZlPD4P-IvnhQoKdE9-82" target="vp9ZlPD4P-IvnhQoKdE9-77" edge="1">
          <mxGeometry width="50" height="50" relative="1" as="geometry">
            <mxPoint x="227" y="335" as="sourcePoint" />
            <mxPoint x="254" y="300" as="targetPoint" />
          </mxGeometry>
        </mxCell>
        <mxCell id="vp9ZlPD4P-IvnhQoKdE9-82" value="" style="ellipse;whiteSpace=wrap;html=1;aspect=fixed;" parent="1" vertex="1">
          <mxGeometry x="220" y="312" width="20" height="20" as="geometry" />
        </mxCell>
        <mxCell id="vp9ZlPD4P-IvnhQoKdE9-83" value="" style="endArrow=none;html=1;rounded=0;" parent="1" source="vp9ZlPD4P-IvnhQoKdE9-84" target="vp9ZlPD4P-IvnhQoKdE9-77" edge="1">
          <mxGeometry width="50" height="50" relative="1" as="geometry">
            <mxPoint x="260" y="342" as="sourcePoint" />
            <mxPoint x="310" y="340" as="targetPoint" />
          </mxGeometry>
        </mxCell>
        <mxCell id="vp9ZlPD4P-IvnhQoKdE9-84" value="" style="ellipse;whiteSpace=wrap;html=1;aspect=fixed;" parent="1" vertex="1">
          <mxGeometry x="260" y="312" width="20" height="20" as="geometry" />
        </mxCell>
        <mxCell id="vp9ZlPD4P-IvnhQoKdE9-85" value="" style="endArrow=none;html=1;rounded=0;strokeColor=#071421;" parent="1" source="vp9ZlPD4P-IvnhQoKdE9-86" target="vp9ZlPD4P-IvnhQoKdE9-80" edge="1">
          <mxGeometry width="50" height="50" relative="1" as="geometry">
            <mxPoint x="300" y="342" as="sourcePoint" />
            <mxPoint x="270" y="310" as="targetPoint" />
          </mxGeometry>
        </mxCell>
        <mxCell id="vp9ZlPD4P-IvnhQoKdE9-86" value="" style="ellipse;whiteSpace=wrap;html=1;aspect=fixed;strokeColor=#071421;" parent="1" vertex="1">
          <mxGeometry x="290" y="312" width="20" height="20" as="geometry" />
        </mxCell>
        <mxCell id="vp9ZlPD4P-IvnhQoKdE9-88" value="" style="endArrow=none;html=1;rounded=0;strokeColor=#EA6B66;dashed=1;startArrow=classic;startFill=1;" parent="1" source="vp9ZlPD4P-IvnhQoKdE9-89" target="vp9ZlPD4P-IvnhQoKdE9-86" edge="1">
          <mxGeometry width="50" height="50" relative="1" as="geometry">
            <mxPoint x="267" y="380" as="sourcePoint" />
            <mxPoint x="303" y="332" as="targetPoint" />
          </mxGeometry>
        </mxCell>
        <mxCell id="vp9ZlPD4P-IvnhQoKdE9-89" value="" style="ellipse;whiteSpace=wrap;html=1;aspect=fixed;strokeColor=#EA6B66;" parent="1" vertex="1">
          <mxGeometry x="260" y="360" width="20" height="20" as="geometry" />
        </mxCell>
        <mxCell id="vp9ZlPD4P-IvnhQoKdE9-90" value="" style="endArrow=none;html=1;rounded=0;strokeColor=#EA6B66;dashed=1;startArrow=classic;startFill=1;" parent="1" source="vp9ZlPD4P-IvnhQoKdE9-91" target="vp9ZlPD4P-IvnhQoKdE9-86" edge="1">
          <mxGeometry width="50" height="50" relative="1" as="geometry">
            <mxPoint x="300" y="387" as="sourcePoint" />
            <mxPoint x="310" y="335" as="targetPoint" />
          </mxGeometry>
        </mxCell>
        <mxCell id="vp9ZlPD4P-IvnhQoKdE9-91" value="" style="ellipse;whiteSpace=wrap;html=1;aspect=fixed;strokeColor=#EA6B66;" parent="1" vertex="1">
          <mxGeometry x="320" y="360" width="20" height="20" as="geometry" />
        </mxCell>
        <mxCell id="vp9ZlPD4P-IvnhQoKdE9-92" value="" style="ellipse;whiteSpace=wrap;html=1;aspect=fixed;strokeColor=#071421;" parent="1" vertex="1">
          <mxGeometry x="440" y="230" width="20" height="20" as="geometry" />
        </mxCell>
        <mxCell id="vp9ZlPD4P-IvnhQoKdE9-93" value="" style="endArrow=none;html=1;rounded=0;" parent="1" source="vp9ZlPD4P-IvnhQoKdE9-95" target="vp9ZlPD4P-IvnhQoKdE9-92" edge="1">
          <mxGeometry width="50" height="50" relative="1" as="geometry">
            <mxPoint x="417" y="283" as="sourcePoint" />
            <mxPoint x="600" y="280" as="targetPoint" />
          </mxGeometry>
        </mxCell>
        <mxCell id="vp9ZlPD4P-IvnhQoKdE9-94" value="" style="endArrow=none;html=1;rounded=0;" parent="1" source="vp9ZlPD4P-IvnhQoKdE9-96" target="vp9ZlPD4P-IvnhQoKdE9-92" edge="1">
          <mxGeometry width="50" height="50" relative="1" as="geometry">
            <mxPoint x="510" y="320" as="sourcePoint" />
            <mxPoint x="520" y="230" as="targetPoint" />
          </mxGeometry>
        </mxCell>
        <mxCell id="vp9ZlPD4P-IvnhQoKdE9-95" value="" style="ellipse;whiteSpace=wrap;html=1;aspect=fixed;" parent="1" vertex="1">
          <mxGeometry x="410" y="270" width="20" height="20" as="geometry" />
        </mxCell>
        <mxCell id="vp9ZlPD4P-IvnhQoKdE9-96" value="" style="ellipse;whiteSpace=wrap;html=1;aspect=fixed;" parent="1" vertex="1">
          <mxGeometry x="470" y="270" width="20" height="20" as="geometry" />
        </mxCell>
        <mxCell id="vp9ZlPD4P-IvnhQoKdE9-97" value="" style="endArrow=none;html=1;rounded=0;strokeColor=#071421;" parent="1" source="vp9ZlPD4P-IvnhQoKdE9-98" target="vp9ZlPD4P-IvnhQoKdE9-92" edge="1">
          <mxGeometry width="50" height="50" relative="1" as="geometry">
            <mxPoint x="450" y="290" as="sourcePoint" />
            <mxPoint x="580" y="280" as="targetPoint" />
          </mxGeometry>
        </mxCell>
        <mxCell id="vp9ZlPD4P-IvnhQoKdE9-98" value="" style="ellipse;whiteSpace=wrap;html=1;aspect=fixed;strokeColor=#071421;" parent="1" vertex="1">
          <mxGeometry x="440" y="270" width="20" height="20" as="geometry" />
        </mxCell>
        <mxCell id="vp9ZlPD4P-IvnhQoKdE9-99" value="" style="endArrow=none;html=1;rounded=0;" parent="1" source="vp9ZlPD4P-IvnhQoKdE9-100" target="vp9ZlPD4P-IvnhQoKdE9-95" edge="1">
          <mxGeometry width="50" height="50" relative="1" as="geometry">
            <mxPoint x="377" y="335" as="sourcePoint" />
            <mxPoint x="404" y="300" as="targetPoint" />
          </mxGeometry>
        </mxCell>
        <mxCell id="vp9ZlPD4P-IvnhQoKdE9-100" value="" style="ellipse;whiteSpace=wrap;html=1;aspect=fixed;" parent="1" vertex="1">
          <mxGeometry x="370" y="312" width="20" height="20" as="geometry" />
        </mxCell>
        <mxCell id="vp9ZlPD4P-IvnhQoKdE9-101" value="" style="endArrow=none;html=1;rounded=0;" parent="1" source="vp9ZlPD4P-IvnhQoKdE9-102" target="vp9ZlPD4P-IvnhQoKdE9-95" edge="1">
          <mxGeometry width="50" height="50" relative="1" as="geometry">
            <mxPoint x="410" y="342" as="sourcePoint" />
            <mxPoint x="460" y="340" as="targetPoint" />
          </mxGeometry>
        </mxCell>
        <mxCell id="vp9ZlPD4P-IvnhQoKdE9-102" value="" style="ellipse;whiteSpace=wrap;html=1;aspect=fixed;" parent="1" vertex="1">
          <mxGeometry x="410" y="312" width="20" height="20" as="geometry" />
        </mxCell>
        <mxCell id="vp9ZlPD4P-IvnhQoKdE9-103" value="" style="endArrow=none;html=1;rounded=0;strokeColor=#071421;" parent="1" source="vp9ZlPD4P-IvnhQoKdE9-104" target="vp9ZlPD4P-IvnhQoKdE9-98" edge="1">
          <mxGeometry width="50" height="50" relative="1" as="geometry">
            <mxPoint x="450" y="342" as="sourcePoint" />
            <mxPoint x="420" y="310" as="targetPoint" />
          </mxGeometry>
        </mxCell>
        <mxCell id="vp9ZlPD4P-IvnhQoKdE9-104" value="" style="ellipse;whiteSpace=wrap;html=1;aspect=fixed;strokeColor=#EA6B66;" parent="1" vertex="1">
          <mxGeometry x="440" y="312" width="20" height="20" as="geometry" />
        </mxCell>
        <mxCell id="vp9ZlPD4P-IvnhQoKdE9-105" value="" style="endArrow=none;html=1;rounded=0;strokeColor=#071421;dashed=1;" parent="1" source="vp9ZlPD4P-IvnhQoKdE9-106" target="vp9ZlPD4P-IvnhQoKdE9-104" edge="1">
          <mxGeometry width="50" height="50" relative="1" as="geometry">
            <mxPoint x="417" y="380" as="sourcePoint" />
            <mxPoint x="453" y="332" as="targetPoint" />
          </mxGeometry>
        </mxCell>
        <mxCell id="vp9ZlPD4P-IvnhQoKdE9-106" value="" style="ellipse;whiteSpace=wrap;html=1;aspect=fixed;strokeColor=#071421;" parent="1" vertex="1">
          <mxGeometry x="415" y="360" width="20" height="20" as="geometry" />
        </mxCell>
        <mxCell id="vp9ZlPD4P-IvnhQoKdE9-107" value="" style="endArrow=none;html=1;rounded=0;strokeColor=#071421;dashed=1;" parent="1" source="vp9ZlPD4P-IvnhQoKdE9-108" target="vp9ZlPD4P-IvnhQoKdE9-104" edge="1">
          <mxGeometry width="50" height="50" relative="1" as="geometry">
            <mxPoint x="450" y="387" as="sourcePoint" />
            <mxPoint x="460" y="335" as="targetPoint" />
          </mxGeometry>
        </mxCell>
        <mxCell id="vp9ZlPD4P-IvnhQoKdE9-108" value="" style="ellipse;whiteSpace=wrap;html=1;aspect=fixed;strokeColor=#071421;" parent="1" vertex="1">
          <mxGeometry x="470" y="360" width="20" height="20" as="geometry" />
        </mxCell>
        <mxCell id="vp9ZlPD4P-IvnhQoKdE9-139" value="" style="ellipse;whiteSpace=wrap;html=1;aspect=fixed;strokeColor=#EA6B66;" parent="1" vertex="1">
          <mxGeometry x="590" y="229" width="20" height="20" as="geometry" />
        </mxCell>
        <mxCell id="vp9ZlPD4P-IvnhQoKdE9-140" value="" style="endArrow=none;html=1;rounded=0;" parent="1" source="vp9ZlPD4P-IvnhQoKdE9-142" target="vp9ZlPD4P-IvnhQoKdE9-139" edge="1">
          <mxGeometry width="50" height="50" relative="1" as="geometry">
            <mxPoint x="567" y="282" as="sourcePoint" />
            <mxPoint x="750" y="279" as="targetPoint" />
          </mxGeometry>
        </mxCell>
        <mxCell id="vp9ZlPD4P-IvnhQoKdE9-141" value="" style="endArrow=none;html=1;rounded=0;" parent="1" source="vp9ZlPD4P-IvnhQoKdE9-143" target="vp9ZlPD4P-IvnhQoKdE9-139" edge="1">
          <mxGeometry width="50" height="50" relative="1" as="geometry">
            <mxPoint x="660" y="319" as="sourcePoint" />
            <mxPoint x="670" y="229" as="targetPoint" />
          </mxGeometry>
        </mxCell>
        <mxCell id="vp9ZlPD4P-IvnhQoKdE9-142" value="" style="ellipse;whiteSpace=wrap;html=1;aspect=fixed;" parent="1" vertex="1">
          <mxGeometry x="560" y="269" width="20" height="20" as="geometry" />
        </mxCell>
        <mxCell id="vp9ZlPD4P-IvnhQoKdE9-143" value="" style="ellipse;whiteSpace=wrap;html=1;aspect=fixed;" parent="1" vertex="1">
          <mxGeometry x="620" y="269" width="20" height="20" as="geometry" />
        </mxCell>
        <mxCell id="vp9ZlPD4P-IvnhQoKdE9-144" value="" style="endArrow=classic;html=1;rounded=0;strokeColor=#EA6B66;endFill=1;" parent="1" source="vp9ZlPD4P-IvnhQoKdE9-145" target="vp9ZlPD4P-IvnhQoKdE9-139" edge="1">
          <mxGeometry width="50" height="50" relative="1" as="geometry">
            <mxPoint x="600" y="289" as="sourcePoint" />
            <mxPoint x="730" y="279" as="targetPoint" />
          </mxGeometry>
        </mxCell>
        <mxCell id="vp9ZlPD4P-IvnhQoKdE9-145" value="" style="ellipse;whiteSpace=wrap;html=1;aspect=fixed;strokeColor=#EA6B66;" parent="1" vertex="1">
          <mxGeometry x="590" y="269" width="20" height="20" as="geometry" />
        </mxCell>
        <mxCell id="vp9ZlPD4P-IvnhQoKdE9-146" value="" style="endArrow=none;html=1;rounded=0;" parent="1" source="vp9ZlPD4P-IvnhQoKdE9-147" target="vp9ZlPD4P-IvnhQoKdE9-142" edge="1">
          <mxGeometry width="50" height="50" relative="1" as="geometry">
            <mxPoint x="527" y="334" as="sourcePoint" />
            <mxPoint x="554" y="299" as="targetPoint" />
          </mxGeometry>
        </mxCell>
        <mxCell id="vp9ZlPD4P-IvnhQoKdE9-147" value="" style="ellipse;whiteSpace=wrap;html=1;aspect=fixed;" parent="1" vertex="1">
          <mxGeometry x="520" y="311" width="20" height="20" as="geometry" />
        </mxCell>
        <mxCell id="vp9ZlPD4P-IvnhQoKdE9-148" value="" style="endArrow=none;html=1;rounded=0;" parent="1" source="vp9ZlPD4P-IvnhQoKdE9-149" target="vp9ZlPD4P-IvnhQoKdE9-142" edge="1">
          <mxGeometry width="50" height="50" relative="1" as="geometry">
            <mxPoint x="560" y="341" as="sourcePoint" />
            <mxPoint x="610" y="339" as="targetPoint" />
          </mxGeometry>
        </mxCell>
        <mxCell id="vp9ZlPD4P-IvnhQoKdE9-149" value="" style="ellipse;whiteSpace=wrap;html=1;aspect=fixed;" parent="1" vertex="1">
          <mxGeometry x="560" y="311" width="20" height="20" as="geometry" />
        </mxCell>
        <mxCell id="vp9ZlPD4P-IvnhQoKdE9-150" value="" style="endArrow=classic;html=1;rounded=0;strokeColor=#EA6B66;endFill=1;" parent="1" source="vp9ZlPD4P-IvnhQoKdE9-151" target="vp9ZlPD4P-IvnhQoKdE9-145" edge="1">
          <mxGeometry width="50" height="50" relative="1" as="geometry">
            <mxPoint x="600" y="341" as="sourcePoint" />
            <mxPoint x="570" y="309" as="targetPoint" />
          </mxGeometry>
        </mxCell>
        <mxCell id="vp9ZlPD4P-IvnhQoKdE9-151" value="" style="ellipse;whiteSpace=wrap;html=1;aspect=fixed;strokeColor=#EA6B66;" parent="1" vertex="1">
          <mxGeometry x="590" y="311" width="20" height="20" as="geometry" />
        </mxCell>
        <mxCell id="vp9ZlPD4P-IvnhQoKdE9-153" value="" style="ellipse;whiteSpace=wrap;html=1;aspect=fixed;strokeColor=#000000;" parent="1" vertex="1">
          <mxGeometry x="570" y="349" width="20" height="20" as="geometry" />
        </mxCell>
        <mxCell id="vp9ZlPD4P-IvnhQoKdE9-154" value="" style="endArrow=none;html=1;rounded=0;strokeColor=#071421;dashed=1;" parent="1" source="vp9ZlPD4P-IvnhQoKdE9-155" target="vp9ZlPD4P-IvnhQoKdE9-151" edge="1">
          <mxGeometry width="50" height="50" relative="1" as="geometry">
            <mxPoint x="600" y="386" as="sourcePoint" />
            <mxPoint x="610" y="334" as="targetPoint" />
          </mxGeometry>
        </mxCell>
        <mxCell id="vp9ZlPD4P-IvnhQoKdE9-155" value="" style="ellipse;whiteSpace=wrap;html=1;aspect=fixed;strokeColor=#071421;" parent="1" vertex="1">
          <mxGeometry x="610" y="349" width="20" height="20" as="geometry" />
        </mxCell>
        <mxCell id="vp9ZlPD4P-IvnhQoKdE9-159" value="" style="endArrow=classic;html=1;rounded=0;" parent="1" edge="1">
          <mxGeometry width="50" height="50" relative="1" as="geometry">
            <mxPoint x="120" y="210" as="sourcePoint" />
            <mxPoint x="120" y="210" as="targetPoint" />
            <Array as="points">
              <mxPoint x="660" y="210" />
              <mxPoint x="660" y="170" />
              <mxPoint x="120" y="170" />
            </Array>
          </mxGeometry>
        </mxCell>
        <mxCell id="vp9ZlPD4P-IvnhQoKdE9-160" value="&lt;div style=&quot;font-size: 18px;&quot;&gt;Select&lt;/div&gt;" style="edgeLabel;html=1;align=center;verticalAlign=middle;resizable=0;points=[];fontSize=18;" parent="vp9ZlPD4P-IvnhQoKdE9-159" vertex="1" connectable="0">
          <mxGeometry x="-0.9313" y="-1" relative="1" as="geometry">
            <mxPoint x="11" as="offset" />
          </mxGeometry>
        </mxCell>
        <mxCell id="vp9ZlPD4P-IvnhQoKdE9-161" value="Expand" style="edgeLabel;html=1;align=center;verticalAlign=middle;resizable=0;points=[];fontSize=18;" parent="vp9ZlPD4P-IvnhQoKdE9-159" vertex="1" connectable="0">
          <mxGeometry x="-0.7018" y="-1" relative="1" as="geometry">
            <mxPoint x="11" as="offset" />
          </mxGeometry>
        </mxCell>
        <mxCell id="vp9ZlPD4P-IvnhQoKdE9-162" value="Simulate" style="edgeLabel;html=1;align=center;verticalAlign=middle;resizable=0;points=[];fontSize=18;" parent="vp9ZlPD4P-IvnhQoKdE9-159" vertex="1" connectable="0">
          <mxGeometry x="-0.4391" y="-1" relative="1" as="geometry">
            <mxPoint x="7" as="offset" />
          </mxGeometry>
        </mxCell>
        <mxCell id="vp9ZlPD4P-IvnhQoKdE9-163" value="Backpropogate" style="edgeLabel;html=1;align=center;verticalAlign=middle;resizable=0;points=[];fontSize=18;" parent="vp9ZlPD4P-IvnhQoKdE9-159" vertex="1" connectable="0">
          <mxGeometry x="-0.1885" relative="1" as="geometry">
            <mxPoint x="-1" as="offset" />
          </mxGeometry>
        </mxCell>
        <mxCell id="vp9ZlPD4P-IvnhQoKdE9-164" value="Repeated N times" style="edgeLabel;html=1;align=center;verticalAlign=middle;resizable=0;points=[];fontSize=18;" parent="vp9ZlPD4P-IvnhQoKdE9-159" vertex="1" connectable="0">
          <mxGeometry x="0.599" relative="1" as="geometry">
            <mxPoint x="88" as="offset" />
          </mxGeometry>
        </mxCell>
        <mxCell id="tq2gl1iUYop8LYEsl_of-1" value="&lt;div&gt;&lt;font style=&quot;font-size: 16px;&quot; color=&quot;#ea6b66&quot;&gt;AlphaZero&lt;br&gt;&lt;/font&gt;&lt;/div&gt;&lt;div&gt;&lt;font style=&quot;font-size: 16px;&quot; color=&quot;#ea6b66&quot;&gt;DCNN&lt;/font&gt;&lt;/div&gt;" style="whiteSpace=wrap;html=1;aspect=fixed;strokeColor=#EA6B66;fontSize=16;" vertex="1" parent="1">
          <mxGeometry x="140" y="400" width="100" height="100" as="geometry" />
        </mxCell>
        <mxCell id="tq2gl1iUYop8LYEsl_of-2" value="" style="endArrow=classic;html=1;rounded=0;entryX=0.5;entryY=1;entryDx=0;entryDy=0;fontColor=#EA6B66;strokeColor=#EA6B66;" edge="1" parent="1" target="vp9ZlPD4P-IvnhQoKdE9-89">
          <mxGeometry width="50" height="50" relative="1" as="geometry">
            <mxPoint x="240" y="420" as="sourcePoint" />
            <mxPoint x="320" y="420" as="targetPoint" />
            <Array as="points">
              <mxPoint x="270" y="420" />
            </Array>
          </mxGeometry>
        </mxCell>
        <mxCell id="tq2gl1iUYop8LYEsl_of-5" value="&lt;div style=&quot;font-size: 16px;&quot;&gt;Policy&lt;/div&gt;" style="edgeLabel;html=1;align=center;verticalAlign=middle;resizable=0;points=[];labelBackgroundColor=default;fontColor=#EA6B66;fontSize=16;" vertex="1" connectable="0" parent="tq2gl1iUYop8LYEsl_of-2">
          <mxGeometry x="0.0202" y="-1" relative="1" as="geometry">
            <mxPoint x="29" y="6" as="offset" />
          </mxGeometry>
        </mxCell>
        <mxCell id="tq2gl1iUYop8LYEsl_of-10" value="&lt;div style=&quot;font-size: 16px;&quot;&gt;0.01&lt;/div&gt;" style="edgeLabel;html=1;align=center;verticalAlign=middle;resizable=0;points=[];fontColor=#EA6B66;fontSize=16;" vertex="1" connectable="0" parent="tq2gl1iUYop8LYEsl_of-2">
          <mxGeometry x="0.4449" relative="1" as="geometry">
            <mxPoint as="offset" />
          </mxGeometry>
        </mxCell>
        <mxCell id="tq2gl1iUYop8LYEsl_of-4" value="" style="endArrow=classic;html=1;rounded=0;exitX=1.003;exitY=0.804;exitDx=0;exitDy=0;exitPerimeter=0;entryX=0.5;entryY=1;entryDx=0;entryDy=0;strokeColor=#EA6B66;" edge="1" parent="1" source="tq2gl1iUYop8LYEsl_of-1" target="vp9ZlPD4P-IvnhQoKdE9-104">
          <mxGeometry width="50" height="50" relative="1" as="geometry">
            <mxPoint x="250" y="430" as="sourcePoint" />
            <mxPoint x="320" y="480" as="targetPoint" />
            <Array as="points">
              <mxPoint x="450" y="480" />
            </Array>
          </mxGeometry>
        </mxCell>
        <mxCell id="tq2gl1iUYop8LYEsl_of-7" value="&lt;font color=&quot;#ea6b66&quot;&gt;Value&lt;/font&gt;" style="edgeLabel;html=1;align=center;verticalAlign=middle;resizable=0;points=[];fontSize=16;" vertex="1" connectable="0" parent="tq2gl1iUYop8LYEsl_of-4">
          <mxGeometry x="-0.5259" y="-2" relative="1" as="geometry">
            <mxPoint x="-25" as="offset" />
          </mxGeometry>
        </mxCell>
        <mxCell id="tq2gl1iUYop8LYEsl_of-11" value="-0.46" style="edgeLabel;html=1;align=center;verticalAlign=middle;resizable=0;points=[];fontColor=#EA6B66;fontSize=16;" vertex="1" connectable="0" parent="tq2gl1iUYop8LYEsl_of-4">
          <mxGeometry x="0.5409" y="-1" relative="1" as="geometry">
            <mxPoint as="offset" />
          </mxGeometry>
        </mxCell>
        <mxCell id="tq2gl1iUYop8LYEsl_of-8" value="" style="endArrow=none;html=1;rounded=0;strokeColor=#071421;dashed=1;" edge="1" parent="1" source="vp9ZlPD4P-IvnhQoKdE9-151" target="vp9ZlPD4P-IvnhQoKdE9-153">
          <mxGeometry width="50" height="50" relative="1" as="geometry">
            <mxPoint x="625" y="360" as="sourcePoint" />
            <mxPoint x="615" y="340" as="targetPoint" />
          </mxGeometry>
        </mxCell>
        <mxCell id="tq2gl1iUYop8LYEsl_of-12" value="" style="endArrow=classic;html=1;rounded=0;entryX=0;entryY=0.5;entryDx=0;entryDy=0;strokeColor=#EA6B66;" edge="1" parent="1">
          <mxGeometry width="50" height="50" relative="1" as="geometry">
            <mxPoint x="40" y="453" as="sourcePoint" />
            <mxPoint x="140" y="452.93" as="targetPoint" />
          </mxGeometry>
        </mxCell>
        <mxCell id="tq2gl1iUYop8LYEsl_of-13" value="Game State" style="edgeLabel;html=1;align=center;verticalAlign=middle;resizable=0;points=[];fontColor=#EA6B66;fontSize=16;" vertex="1" connectable="0" parent="tq2gl1iUYop8LYEsl_of-12">
          <mxGeometry x="-0.3805" y="-2" relative="1" as="geometry">
            <mxPoint x="9" y="-5" as="offset" />
          </mxGeometry>
        </mxCell>
      </root>
    </mxGraphModel>
  </diagram>
</mxfile>
